<?xml version="1.0" encoding="UTF-8" standalone="no"?>
<!DOCTYPE svg PUBLIC "-//W3C//DTD SVG 1.1//EN" "http://www.w3.org/Graphics/SVG/1.1/DTD/svg11.dtd">
<svg width="100%" height="100%" viewBox="0 0 6646 4167" version="1.1" xmlns="http://www.w3.org/2000/svg" xmlns:xlink="http://www.w3.org/1999/xlink" xml:space="preserve" xmlns:serif="http://www.serif.com/" style="fill-rule:evenodd;clip-rule:evenodd;stroke-linejoin:round;stroke-miterlimit:2;">
    <g transform="matrix(4.16667,0,0,4.16667,0,0)">
        <path d="M1201.52,854.996C1182.31,854.996 1166.67,870.629 1166.67,889.846L1166.67,1000L1168.51,1000L1168.51,889.846C1168.51,871.645 1183.32,856.837 1201.52,856.837C1219.72,856.837 1234.53,871.645 1234.53,889.846L1234.53,1000L1236.37,1000L1236.37,889.846C1236.37,870.629 1220.74,854.996 1201.52,854.996Z" style="fill-rule:nonzero;"/>
        <path d="M1244.56,683.551C1218.06,683.551 1196.51,705.11 1196.51,731.609L1196.51,760.229C1196.51,784.122 1181.23,805.123 1158.51,812.489C1135.01,820.102 1119.23,841.808 1119.23,866.501L1119.23,1000L1121.07,1000L1121.07,866.501C1121.07,842.609 1136.34,821.607 1159.07,814.241C1182.56,806.628 1198.35,784.922 1198.35,760.229L1198.35,731.609C1198.35,706.125 1219.08,685.392 1244.56,685.392C1270.05,685.392 1290.78,706.125 1290.78,731.609L1290.78,950.347C1290.78,962.968 1286.41,975.323 1278.47,985.135C1274.82,989.639 1271.91,994.664 1269.79,1000L1271.78,1000C1273.8,995.089 1276.52,990.461 1279.9,986.294C1288.1,976.155 1292.62,963.389 1292.62,950.347L1292.62,731.609C1292.62,705.11 1271.06,683.551 1244.56,683.551Z" style="fill-rule:nonzero;"/>
        <path d="M1350.05,1000L1352.05,1000C1354.59,993.851 1355.97,987.151 1355.97,980.201L1355.97,728.154L1355.88,728.154L1355.88,728.835L1354.12,728.835L1354.12,980.201C1354.12,987.171 1352.69,993.879 1350.05,1000Z" style="fill-rule:nonzero;"/>
        <path d="M1541.57,1000L1541.57,852.773C1541.57,842.924 1533.56,834.911 1523.71,834.911C1513.86,834.911 1505.85,842.924 1505.85,852.773L1505.85,1000L1507.69,1000L1507.69,852.773C1507.69,843.939 1514.88,836.753 1523.71,836.753C1532.54,836.753 1539.73,843.939 1539.73,852.773L1539.73,1000L1541.57,1000Z" style="fill-rule:nonzero;"/>
        <path d="M1537.15,688.001L1537.15,616.391C1537.15,597.607 1552.43,582.325 1571.22,582.325C1580.36,582.325 1588.66,585.95 1594.78,591.828L1594.78,589.335C1588.47,583.83 1580.23,580.484 1571.22,580.484C1551.42,580.484 1535.31,596.591 1535.31,616.391L1535.31,688.001C1535.31,699.115 1529.87,709.552 1520.77,715.92L1472.2,749.872C1462.6,756.584 1456.87,767.585 1456.87,779.3L1456.87,1000L1458.71,1000L1458.71,779.3C1458.71,768.186 1464.15,757.749 1473.26,751.381L1521.82,717.429C1531.42,710.716 1537.15,699.715 1537.15,688.001Z" style="fill-rule:nonzero;"/>
        <path d="M1570.3,1000L1570.3,822.204C1570.3,797.734 1550.39,777.827 1525.92,777.827C1501.45,777.827 1481.54,797.734 1481.54,822.204L1481.54,1000L1483.38,1000L1483.38,822.204C1483.38,798.75 1502.47,779.669 1525.92,779.669C1549.37,779.669 1568.45,798.75 1568.45,822.204L1568.45,1000L1570.3,1000Z" style="fill-rule:nonzero;"/>
        <path d="M1443.13,579.792L1335.85,657.73C1324.92,665.667 1318.4,678.468 1318.4,691.972L1318.4,967.338L1320.24,967.338L1320.24,691.972C1320.24,679.055 1326.48,666.812 1336.93,659.219L1444.21,581.281C1455.13,573.344 1461.66,560.543 1461.66,547.039C1461.66,534.427 1456.1,522.569 1446.4,514.503L1430.21,501.035C1420.94,493.32 1415.62,481.977 1415.62,469.915L1415.62,384.179L1413.78,384.179L1413.78,469.915C1413.78,482.526 1419.34,494.385 1429.04,502.45L1445.22,515.919C1454.5,523.633 1459.81,534.976 1459.81,547.039C1459.81,559.956 1453.58,572.199 1443.13,579.792Z" style="fill-rule:nonzero;"/>
        <path d="M928.774,75.002L928.774,84.64C928.774,116.194 954.447,141.867 986.002,141.867L1006.11,141.867C1061.75,141.867 1107.02,187.131 1107.02,242.768L1107.02,374.144C1107.02,399.699 1115.51,424.993 1130.94,445.366L1194.88,529.8C1205.67,544.04 1211.6,561.718 1211.6,579.579L1211.6,601.589C1211.6,626.7 1232.03,647.129 1257.14,647.129C1267.53,647.129 1277.69,643.535 1285.77,637.009L1370.67,568.403C1383.56,557.986 1390.95,542.506 1390.95,525.933L1390.95,366.502L1389.11,366.502L1389.11,525.933C1389.11,541.947 1381.96,556.905 1369.51,566.971L1284.61,635.577C1276.86,641.839 1267.11,645.288 1257.14,645.288C1233.05,645.288 1213.44,625.684 1213.44,601.589L1213.44,579.579C1213.44,561.319 1207.37,543.246 1196.35,528.689L1132.41,444.254C1117.22,424.199 1108.86,399.3 1108.86,374.144L1108.86,242.768C1108.86,186.115 1062.77,140.026 1006.11,140.026L986.002,140.026C955.462,140.026 930.615,115.179 930.615,84.64L930.615,69.003L930.153,69.003L930.153,75.002L928.774,75.002Z" style="fill-rule:nonzero;"/>
        <path d="M1416.36,770.35C1416.36,749.168 1426.89,729.515 1444.52,717.779L1500.01,680.846C1511.51,672.053 1518.37,658.164 1518.37,643.69L1518.37,597.714C1518.37,588.531 1521.75,579.711 1527.88,572.877L1534.17,565.872C1540.98,558.283 1544.15,548.641 1544.15,535.526L1544.14,501.157C1544.14,496.343 1546.01,491.818 1549.42,488.415C1552.82,485.011 1557.35,483.137 1562.16,483.137L1562.65,483.137C1567.66,483.137 1572.36,485.072 1575.89,488.586C1579.41,492.094 1581.35,496.765 1581.35,501.737L1581.34,514.646C1581.34,525.212 1586.1,535.035 1594.38,541.594L1594.78,541.913L1594.78,539.531C1587.41,533.332 1583.18,524.323 1583.19,514.646L1583.19,501.738C1583.19,496.272 1581.06,491.138 1577.19,487.282C1573.31,483.422 1568.15,481.296 1562.65,481.296L1562.16,481.296C1556.85,481.296 1551.87,483.362 1548.12,487.113C1544.36,490.864 1542.3,495.852 1542.3,501.157L1542.3,535.526C1542.31,548.16 1539.28,557.411 1532.8,564.642L1526.51,571.647C1520.07,578.819 1516.53,588.076 1516.53,597.714L1516.53,643.69C1516.53,657.594 1509.93,670.937 1498.94,679.348L1443.5,716.246C1425.35,728.325 1414.52,748.55 1414.52,770.35L1414.52,984.271C1414.52,989.579 1414.09,994.838 1413.25,1000L1415.11,1000C1415.93,994.835 1416.36,989.578 1416.36,984.271L1416.36,770.35Z" style="fill-rule:nonzero;"/>
        <path d="M870.617,995.408L856.518,982.618C848.548,975.389 843.978,965.071 843.978,954.311L843.978,889.895C843.978,879.031 852.817,870.193 863.681,870.193C874.544,870.193 883.382,879.031 883.382,889.895L883.382,934.264C883.382,944.841 887.468,954.819 894.888,962.36L917.337,985.177C921.517,989.426 924.578,994.49 926.39,1000L928.328,1000C926.455,994 923.177,988.488 918.65,983.886L896.2,961.068C889.123,953.875 885.224,944.355 885.224,934.264L885.224,889.895C885.224,878.016 875.56,868.351 863.681,868.351C851.801,868.351 842.137,878.016 842.137,889.895L842.137,954.311C842.137,965.589 846.928,976.404 855.281,983.982L869.38,996.772C870.5,997.788 871.544,998.87 872.526,1000L874.937,1000C873.628,998.368 872.185,996.831 870.617,995.408Z" style="fill-rule:nonzero;"/>
        <path d="M616.39,969.915C616.39,981.308 620.941,992.077 628.964,1000L631.646,1000C623.107,992.324 618.232,981.453 618.232,969.915L618.232,884.179L616.39,884.179L616.39,969.915Z" style="fill-rule:nonzero;"/>
        <rect x="591.715" y="866.502" width="1.841" height="133.498" style="fill-rule:nonzero;"/>
        <path d="M335.015,944.254C319.829,924.199 311.464,899.3 311.464,874.144L311.464,742.768C311.464,686.115 265.375,640.026 208.722,640.026L188.61,640.026C158.07,640.026 133.223,615.179 133.223,584.639L133.223,569.003L132.76,569.003L132.76,575.002L131.382,575.002L131.382,584.639C131.382,616.194 157.054,641.867 188.61,641.867L208.722,641.867C264.359,641.867 309.623,687.131 309.623,742.768L309.623,874.144C309.623,899.699 318.12,924.993 333.548,945.366L374.921,1000L377.231,1000L335.015,944.254Z" style="fill-rule:nonzero;"/>
        <path d="M779.794,987.282C775.921,983.422 770.759,981.296 765.257,981.296L764.767,981.296C759.462,981.296 754.474,983.362 750.723,987.113C747.248,990.589 745.242,995.131 744.963,1000L746.804,1000C747.081,995.623 748.897,991.543 752.025,988.415C755.429,985.011 759.954,983.137 764.767,983.137L765.257,983.137C770.268,983.137 774.969,985.072 778.495,988.586C781.601,991.682 783.47,995.685 783.868,1000L785.708,1000C785.307,995.192 783.25,990.726 779.794,987.282Z" style="fill-rule:nonzero;"/>
        <path d="M60.22,553.823L60.22,977.108C60.22,985.154 62.329,993.055 66.257,1000L68.397,1000C64.285,993.114 62.061,985.19 62.061,977.108L62.061,551.572L62.053,551.572L62.053,553.823L60.22,553.823Z" style="fill-rule:nonzero;"/>
        <path d="M261.064,997.664C251.794,985.746 246.691,970.868 246.691,955.771L246.691,780.616C246.691,758.175 228.433,739.918 205.993,739.918C183.552,739.918 165.295,758.175 165.295,780.616L165.295,957.705C165.295,966.987 168.576,976.02 174.53,983.14L188.63,1000L191.032,1000L175.943,981.959C170.264,975.17 167.136,966.556 167.136,957.705L167.136,780.616C167.136,759.19 184.568,741.759 205.994,741.759C227.417,741.759 244.849,759.19 244.849,780.616L244.849,955.771C244.849,971.276 250.091,986.554 259.611,998.794L260.548,1000L262.88,1000L261.064,997.664Z" style="fill-rule:nonzero;"/>
        <path d="M12.339,1000L12.339,616.391C12.339,605.605 7.553,595.922 0,589.335L0,591.828C6.463,598.031 10.498,606.746 10.498,616.391L10.498,1000L12.339,1000Z" style="fill-rule:nonzero;"/>
        <path d="M132.76,569.003L132.76,511.982C132.76,501.404 128.675,491.426 121.256,483.886L98.807,461.069C91.73,453.875 87.831,444.356 87.831,434.264L87.831,389.895C87.831,378.016 78.167,368.351 66.288,368.351C54.408,368.351 44.744,378.016 44.744,389.895L44.744,454.311C44.744,465.589 49.535,476.404 57.888,483.982L71.987,496.772C79.957,504.002 84.527,514.319 84.527,525.079L84.527,963.849C84.527,974.596 88.29,985.083 95.122,993.379L100.575,1000L102.96,1000L96.544,992.209C89.981,984.242 86.368,974.17 86.368,963.849L86.368,525.079C86.368,513.802 81.577,502.986 73.225,495.408L59.126,482.618C51.155,475.389 46.585,465.071 46.585,454.311L46.585,389.895C46.585,379.031 55.424,370.193 66.288,370.193C77.151,370.193 85.99,379.031 85.99,389.895L85.99,434.264C85.99,444.842 90.075,454.82 97.495,462.36L119.944,485.177C127.021,492.371 130.919,501.89 130.919,511.982L130.919,575.002L132.76,575.002L132.76,569.003Z" style="fill-rule:nonzero;"/>
        <path d="M139.167,999.553C130.128,989.247 125.15,976.022 125.15,962.314L125.15,746.308C125.15,705.222 158.576,671.796 199.663,671.796C240.75,671.796 274.175,705.222 274.175,746.308L274.175,922.027C274.175,937.172 279.203,952.17 288.328,964.256L315.319,1000L317.626,1000L289.797,963.146C280.912,951.378 276.017,936.775 276.017,922.027L276.017,746.308C276.017,704.207 241.765,669.954 199.663,669.954C157.561,669.954 123.308,704.207 123.308,746.308L123.308,962.314C123.308,976.135 128.22,989.472 137.141,1000L139.56,1000L139.167,999.553Z" style="fill-rule:nonzero;"/>
        <path d="M206.893,948.408L206.893,786.211L205.052,786.211L205.052,948.408C205.052,962.813 205.706,972.518 214.809,985.872L226.167,1000L228.527,1000L216.289,984.776C207.82,972.351 206.893,963.759 206.893,948.408Z" style="fill-rule:nonzero;"/>
        <path d="M35.542,993.682L35.542,584.33C35.542,573.761 30.79,563.938 22.503,557.379L0.739,540.151C0.485,539.95 0.246,539.738 0,539.531L0,541.913L21.361,558.823C29.204,565.03 33.701,574.327 33.701,584.33L33.701,993.682C33.701,995.803 33.854,997.914 34.142,1000L36.003,1000C35.704,997.915 35.542,995.804 35.542,993.682Z" style="fill-rule:nonzero;"/>
        <path d="M1201.52,65.456C1220.74,65.456 1236.37,49.822 1236.37,30.606L1236.37,0.001L1234.53,0.001L1234.53,30.606C1234.53,48.807 1219.72,63.615 1201.52,63.615C1183.32,63.615 1168.51,48.807 1168.51,30.606L1168.51,0.001L1166.67,0.001L1166.67,30.606C1166.67,49.822 1182.31,65.456 1201.52,65.456Z" style="fill-rule:nonzero;"/>
        <path d="M1119.23,0.001L1119.23,51.565C1119.23,70.355 1130.4,87.265 1147.68,94.646L1197.97,116.126C1214.58,123.216 1225.3,139.462 1225.3,157.513L1225.3,328.323C1225.3,348.914 1242.06,365.666 1262.65,365.666C1283.24,365.666 1299.99,348.914 1299.99,328.323L1299.99,70.774C1299.99,51.823 1310.52,34.786 1327.47,26.311C1338.83,20.63 1347.4,11.237 1352.05,0.001L1350.05,0.001C1345.51,10.523 1337.36,19.306 1326.64,24.664C1309.07,33.453 1298.15,51.121 1298.15,70.774L1298.15,328.323C1298.15,347.899 1282.22,363.825 1262.65,363.825C1243.07,363.825 1227.14,347.899 1227.14,328.323L1227.14,157.513C1227.14,138.723 1215.98,121.813 1198.7,114.432L1148.4,92.952C1131.8,85.862 1121.07,69.616 1121.07,51.565L1121.07,0.001L1119.23,0.001Z" style="fill-rule:nonzero;"/>
        <path d="M1267.58,21.082C1267.58,13.82 1269.04,6.651 1271.78,0.001L1269.79,0.001C1267.14,6.674 1265.74,13.834 1265.74,21.082L1265.74,313.472L1267.58,313.472L1267.58,21.082Z" style="fill-rule:nonzero;"/>
        <path d="M1594.78,139.342L1594.78,135.716C1589.52,127.087 1582.93,119.215 1575.13,112.434C1553.8,93.886 1541.57,67.039 1541.57,38.775L1541.57,0.001L1539.73,0.001L1539.73,38.775C1539.73,67.572 1552.19,94.926 1573.93,113.835C1582.38,121.178 1589.39,129.825 1594.78,139.342Z" style="fill-rule:nonzero;"/>
        <path d="M1355.88,728.154L1355.88,714.116C1355.88,689.594 1363.93,679.387 1376.03,671.606C1391.84,661.437 1451.14,619.561 1473.46,603.796C1476.39,601.732 1478.71,600.091 1480.26,598.997C1493.39,589.746 1501.22,573.283 1501.22,554.96L1501.22,539.039C1501.22,521.118 1492.62,504.06 1478.21,493.409L1462.2,481.576C1448.26,471.271 1439.93,454.766 1439.93,437.427L1439.93,187.494C1439.93,159.227 1452.16,132.377 1473.49,113.829C1495.23,94.931 1507.69,67.575 1507.69,38.775L1507.69,0.001L1505.85,0.001L1505.85,38.775C1505.85,67.042 1493.62,93.891 1472.29,112.44C1450.55,131.338 1438.09,158.694 1438.09,187.494L1438.09,437.427C1438.09,455.348 1446.69,472.406 1461.1,483.057L1477.11,494.889C1491.06,505.195 1499.38,521.7 1499.38,539.039L1499.38,554.96C1499.38,572.685 1491.84,588.585 1479.2,597.492C1477.65,598.586 1475.32,600.227 1472.4,602.292C1450.08,618.05 1390.81,659.91 1375.03,670.058C1357.61,681.268 1354.04,695.778 1354.04,714.116L1354.04,728.835L1355.88,728.835L1355.88,728.154Z" style="fill-rule:nonzero;"/>
        <path d="M1576.56,405.539C1576.56,435.49 1552.19,459.858 1522.24,459.858C1492.29,459.858 1467.92,435.49 1467.92,405.539L1467.92,200.782C1467.92,170.83 1492.29,146.463 1522.24,146.463C1552.19,146.463 1576.56,170.83 1576.56,200.782L1576.56,405.539ZM1522.24,144.621C1491.27,144.621 1466.08,169.815 1466.08,200.782L1466.08,405.539C1466.08,436.505 1491.27,461.699 1522.24,461.699C1553.2,461.699 1578.4,436.505 1578.4,405.539L1578.4,200.782C1578.4,169.815 1553.2,144.621 1522.24,144.621Z" style="fill-rule:nonzero;"/>
        <path d="M1547.92,388.759C1547.92,402.92 1536.4,414.44 1522.24,414.44C1508.08,414.44 1496.56,402.92 1496.56,388.759L1496.56,217.561C1496.56,203.401 1508.08,191.88 1522.24,191.88C1536.4,191.88 1547.92,203.401 1547.92,217.561L1547.92,388.759ZM1522.24,190.039C1507.06,190.039 1494.72,202.385 1494.72,217.561L1494.72,388.759C1494.72,403.935 1507.06,416.281 1522.24,416.281C1537.41,416.281 1549.76,403.935 1549.76,388.759L1549.76,217.561C1549.76,202.385 1537.41,190.039 1522.24,190.039Z" style="fill-rule:nonzero;"/>
        <rect x="1520.58" y="220.669" width="1.84" height="160.564" style="fill-rule:nonzero;"/>
        <path d="M1390.95,358.96L1390.95,158.033C1390.95,129.766 1403.18,102.917 1424.51,84.368C1446.25,65.47 1458.71,38.114 1458.71,9.314L1458.71,0.001L1456.87,0.001L1456.87,9.314C1456.87,37.581 1444.64,64.431 1423.31,82.979C1401.57,101.877 1389.11,129.234 1389.11,158.033L1389.11,366.502L1390.95,366.502L1390.95,358.96Z" style="fill-rule:nonzero;"/>
        <path d="M1594.78,77.677L1594.78,74.78L1580.47,57.398C1573.91,49.431 1570.3,39.359 1570.3,29.039L1570.3,0.001L1568.45,0.001L1568.45,29.039C1568.45,39.785 1572.22,50.273 1579.05,58.568L1594.78,77.677Z" style="fill-rule:nonzero;"/>
        <path d="M1415.62,381.793L1415.62,175.71C1415.62,147.443 1427.86,120.593 1449.19,102.045C1470.92,83.147 1483.38,55.791 1483.38,26.991L1483.38,0.001L1481.54,0.001L1481.54,26.991C1481.54,55.258 1469.31,82.108 1447.98,100.655C1426.25,119.553 1413.78,146.909 1413.78,175.71L1413.78,384.179L1415.62,384.179L1415.62,381.793Z" style="fill-rule:nonzero;"/>
        <path d="M1268.03,609.415C1273.83,609.415 1279.44,607.339 1283.84,603.572L1319.31,573.218C1337.92,557.286 1348.6,534.095 1348.6,509.592L1348.6,132.991C1348.6,104.724 1360.83,77.875 1382.16,59.326C1399.89,43.91 1411.45,22.865 1415.11,0.001L1413.25,0.001C1409.6,22.33 1398.28,42.872 1380.95,57.937C1359.22,76.835 1346.76,104.191 1346.76,132.991L1346.76,509.592C1346.76,533.556 1336.32,556.237 1318.11,571.819L1282.65,602.173C1278.58,605.655 1273.39,607.573 1268.03,607.573C1255.64,607.573 1245.56,597.491 1245.56,585.097L1245.56,562.532C1245.56,547.592 1240.98,533.26 1232.32,521.084L1161.08,420.868C1150.56,406.083 1145.01,388.678 1145.01,370.537L1145.01,242.907C1145.01,209.181 1132.61,176.777 1110.1,151.667L1079.79,117.87C1060.53,96.381 1032.92,84.057 1004.06,84.057L993.25,84.057C977.623,84.057 964.908,71.343 964.908,55.715C964.908,42.387 975.75,31.545 989.078,31.545L1060.44,31.545C1073.76,31.545 1084.61,42.387 1084.61,55.715L1084.61,63.825C1084.61,86.611 1096.86,107.844 1116.6,119.239L1156.66,142.371C1168.78,149.371 1176.31,162.416 1176.31,176.414L1176.31,363.339C1176.31,385.705 1194.51,403.901 1216.88,403.901C1240.81,403.901 1260.29,423.376 1260.29,447.313L1260.29,477.786C1260.29,494.315 1273.74,507.763 1290.27,507.763C1306.79,507.763 1320.24,494.315 1320.24,477.786L1320.24,105.634C1320.24,89.468 1326.47,74.201 1337.77,62.645L1375.67,23.903L1374.35,22.616L1336.46,61.357C1324.81,73.259 1318.4,88.984 1318.4,105.634L1318.4,477.786C1318.4,493.299 1305.78,505.922 1290.27,505.922C1274.75,505.922 1262.13,493.299 1262.13,477.786L1262.13,447.313C1262.13,422.36 1241.83,402.06 1216.88,402.06C1195.52,402.06 1178.16,384.69 1178.16,363.339L1178.16,176.414C1178.16,161.76 1170.27,148.105 1157.58,140.776L1117.52,117.644C1098.35,106.578 1086.45,85.956 1086.45,63.825L1086.45,55.715C1086.45,41.372 1074.78,29.704 1060.44,29.704L989.078,29.704C974.735,29.704 963.066,41.372 963.066,55.715C963.066,72.358 976.607,85.898 993.25,85.898L1004.06,85.898C1032.4,85.898 1059.5,98 1078.42,119.099L1108.72,152.896C1130.94,177.669 1143.17,209.635 1143.17,242.907L1143.17,370.537C1143.17,389.063 1148.84,406.836 1159.58,421.935L1230.82,522.151C1239.26,534.013 1243.71,547.977 1243.71,562.532L1243.71,585.097C1243.71,598.506 1254.62,609.415 1268.03,609.415Z" style="fill-rule:nonzero;"/>
        <path d="M437.138,389.845L437.138,530.606C437.138,548.807 422.331,563.614 404.129,563.614C385.928,563.614 371.121,548.807 371.121,530.606L371.121,389.845C371.121,371.645 385.928,356.837 404.129,356.837C422.331,356.837 437.138,371.645 437.138,389.845ZM369.279,389.845L369.279,530.606C369.279,549.822 384.913,565.456 404.129,565.456C423.346,565.456 438.98,549.822 438.98,530.606L438.98,389.845C438.98,370.63 423.346,354.996 404.129,354.996C384.913,354.996 369.279,370.63 369.279,389.845Z" style="fill-rule:nonzero;"/>
        <path d="M556.732,228.835L556.732,480.201C556.732,499.151 546.203,516.188 529.251,524.664C511.674,533.452 500.755,551.121 500.755,570.773L500.755,828.323C500.755,847.899 484.829,863.825 465.253,863.825C445.677,863.825 429.751,847.899 429.751,828.323L429.751,657.513C429.751,638.723 418.585,621.813 401.306,614.432L351.008,592.951C334.407,585.861 323.68,569.616 323.68,551.564L323.68,366.501C323.68,342.609 338.951,321.607 361.681,314.241C385.171,306.628 400.955,284.922 400.955,260.229L400.955,231.61C400.955,206.125 421.687,185.392 447.172,185.392C472.657,185.392 493.39,206.125 493.39,231.61L493.39,450.347C493.39,462.968 489.015,475.323 481.074,485.135C472.867,495.272 468.347,508.038 468.347,521.081L468.347,813.472L470.189,813.472L470.189,521.081C470.189,508.459 474.562,496.104 482.505,486.293C490.71,476.155 495.231,463.389 495.231,450.347L495.231,231.61C495.231,205.11 473.671,183.551 447.171,183.551C420.671,183.551 399.113,205.11 399.113,231.61L399.113,260.229C399.113,284.122 383.842,305.123 361.113,312.489C337.623,320.102 321.839,341.808 321.839,366.501L321.839,551.564C321.839,570.354 333.005,587.265 350.285,594.645L400.582,616.126C417.183,623.216 427.911,639.462 427.911,657.513L427.911,828.323C427.911,848.914 444.663,865.666 465.253,865.666C485.844,865.666 502.596,848.914 502.596,828.323L502.596,570.773C502.596,551.822 513.125,534.785 530.076,526.311C547.654,517.521 558.573,499.853 558.573,480.201L558.573,228.154L558.487,228.154L558.487,228.835L556.732,228.835Z" style="fill-rule:nonzero;"/>
        <path d="M811.941,975.237L811.941,687.494C811.941,658.698 799.478,631.344 777.736,612.434C756.411,593.886 744.179,567.039 744.179,538.775L744.179,352.772C744.179,342.924 736.167,334.912 726.318,334.912C716.47,334.912 708.458,342.924 708.458,352.772L708.458,538.775C708.458,567.041 696.224,593.891 674.894,612.44C653.161,631.338 640.697,658.694 640.697,687.494L640.697,937.427C640.697,955.348 649.3,972.406 663.711,983.057L679.721,994.889C681.835,996.452 683.802,998.172 685.648,1000L688.251,1000C685.987,997.604 683.503,995.395 680.816,993.408L664.806,981.576C650.863,971.271 642.538,954.766 642.538,937.427L642.538,687.494C642.538,659.227 654.771,632.377 676.102,613.829C697.834,594.931 710.298,567.574 710.298,538.775L710.298,352.772C710.298,343.939 717.486,336.753 726.318,336.753C735.152,336.753 742.338,343.939 742.338,352.772L742.338,538.775C742.338,567.571 754.799,594.925 776.542,613.835C797.869,632.383 810.099,659.231 810.099,687.494L810.099,975.237C810.099,984.509 813.457,993.227 819.468,1000L821.989,1000C815.56,993.405 811.941,984.621 811.941,975.237Z" style="fill-rule:nonzero;"/>
        <path d="M779.166,905.539C779.166,935.49 754.797,959.858 724.845,959.858C694.894,959.858 670.526,935.49 670.526,905.539L670.526,700.782C670.526,670.83 694.894,646.463 724.845,646.463C754.797,646.463 779.166,670.83 779.166,700.782L779.166,905.539ZM724.845,644.621C693.878,644.621 668.685,669.815 668.685,700.782L668.685,905.539C668.685,936.505 693.878,961.699 724.845,961.699C755.812,961.699 781.006,936.505 781.006,905.539L781.006,700.782C781.006,669.815 755.812,644.621 724.845,644.621Z" style="fill-rule:nonzero;"/>
        <path d="M750.527,888.759C750.527,902.92 739.005,914.44 724.845,914.44C710.685,914.44 699.165,902.92 699.165,888.759L699.165,717.561C699.165,703.401 710.685,691.88 724.845,691.88C739.005,691.88 750.527,703.401 750.527,717.561L750.527,888.759ZM724.845,690.039C709.669,690.039 697.324,702.385 697.324,717.561L697.324,888.759C697.324,903.935 709.669,916.281 724.845,916.281C740.021,916.281 752.368,903.935 752.368,888.759L752.368,717.561C752.368,702.385 740.021,690.039 724.845,690.039Z" style="fill-rule:nonzero;"/>
        <rect x="723.188" y="720.669" width="1.842" height="160.564" style="fill-rule:nonzero;"/>
        <path d="M857.613,53.823L857.613,477.108C857.613,487.855 861.375,498.342 868.207,506.638L909.307,556.546C915.868,564.513 919.481,574.585 919.481,584.905L919.481,739.38C919.481,758.592 931.031,775.557 948.917,782.603L977.626,793.511L978.281,791.791L949.582,780.886C932.416,774.123 921.322,757.831 921.322,739.38L921.322,584.905C921.322,574.158 917.56,563.671 910.728,555.375L869.627,505.467C863.066,497.5 859.454,487.429 859.454,477.108L859.454,51.572L859.446,51.572L859.446,53.823L857.613,53.823Z" style="fill-rule:nonzero;"/>
        <path d="M928.312,11.983L928.312,75.002L930.153,75.002L930.153,69.003L930.153,11.983C930.153,7.86 929.525,3.832 928.328,0.001L926.391,0.001C927.648,3.819 928.312,7.851 928.312,11.983Z" style="fill-rule:nonzero;"/>
        <path d="M881.919,463.849C881.919,474.596 885.683,485.084 892.515,493.379L933.615,543.287C940.175,551.253 943.789,561.325 943.789,571.646L943.789,730.809C943.789,750.54 959.841,766.592 979.572,766.592C999.303,766.592 1015.35,750.54 1015.35,730.809L1015.35,546.594C1015.35,537.312 1012.08,528.278 1006.12,521.159L973.335,481.959C967.656,475.17 964.529,466.556 964.529,457.704L964.529,280.615C964.529,259.19 981.96,241.759 1003.39,241.759C1024.81,241.759 1042.24,259.19 1042.24,280.615L1042.24,455.771C1042.24,471.276 1047.48,486.554 1057,498.794L1120.68,580.665C1129.95,592.583 1135.05,607.46 1135.05,622.557L1135.05,680.376C1135.05,703.72 1123.33,725.186 1103.68,737.797L1077.77,754.428C1057.6,767.38 1045.56,789.425 1045.56,813.4L1045.56,915.324C1045.56,936.479 1028.35,953.69 1007.19,953.69C986.035,953.69 968.824,936.479 968.824,915.324L968.824,869.513C968.824,850.3 957.274,833.336 939.398,826.294L899.861,810.719C882.694,803.956 871.601,787.663 871.601,769.213L871.601,614.737C871.601,603.991 867.839,593.504 861.007,585.208L819.907,535.3C813.346,527.333 809.732,517.261 809.732,506.941L809.732,116.391C809.732,96.592 793.625,80.484 773.826,80.484C754.027,80.484 737.919,96.592 737.919,116.391L737.919,188.001C737.919,199.115 732.48,209.552 723.373,215.92L674.81,249.872C665.208,256.584 659.476,267.585 659.476,279.3L659.476,509.313C659.476,537.58 647.244,564.43 625.913,582.978C604.179,601.877 591.715,629.234 591.715,658.033L591.715,866.502L593.556,866.502L593.556,858.96L593.556,658.033C593.556,629.766 605.791,602.917 627.121,584.368C648.853,565.47 661.318,538.113 661.318,509.313L661.318,279.3C661.318,268.186 666.756,257.749 675.865,251.381L724.427,217.429C734.029,210.717 739.76,199.715 739.76,188.001L739.76,116.391C739.76,97.608 755.042,82.326 773.826,82.326C792.609,82.326 807.891,97.608 807.891,116.391L807.891,506.941C807.891,517.687 811.654,528.174 818.486,536.471L859.585,586.378C866.146,594.345 869.76,604.417 869.76,614.737L869.76,769.213C869.76,788.425 881.31,805.39 899.186,812.432L938.723,828.007C955.89,834.77 966.982,851.062 966.982,869.513L966.982,915.324C966.982,937.495 985.019,955.532 1007.19,955.532C1029.36,955.532 1047.4,937.495 1047.4,915.324L1047.4,813.4C1047.4,790.055 1059.13,768.589 1078.77,755.978L1104.68,739.347C1124.85,726.395 1136.9,704.35 1136.9,680.376L1136.9,622.557C1136.9,607.053 1131.65,591.774 1122.13,579.534L1058.46,497.664C1049.19,485.746 1044.08,470.868 1044.08,455.771L1044.08,280.615C1044.08,258.175 1025.83,239.918 1003.38,239.918C980.945,239.918 962.688,258.175 962.688,280.615L962.688,457.704C962.688,466.987 965.968,476.02 971.922,483.14L1004.71,522.339C1010.39,529.13 1013.51,537.743 1013.51,546.594L1013.51,730.809C1013.51,749.524 998.288,764.751 979.572,764.751C960.857,764.751 945.63,749.524 945.63,730.809L945.63,571.646C945.63,560.899 941.868,550.411 935.037,542.116L893.936,492.209C887.375,484.242 883.761,474.17 883.761,463.849L883.761,25.08C883.761,15.919 880.6,7.064 874.937,0.001L872.526,0.001C878.535,6.915 881.919,15.831 881.919,25.08L881.919,463.849Z" style="fill-rule:nonzero;"/>
        <path d="M997.055,169.954C954.954,169.954 920.701,204.206 920.701,246.308L920.701,462.314C920.701,476.469 925.841,490.125 935.176,500.767L961.928,531.264C970.968,541.569 975.947,554.795 975.947,568.503L975.947,731.419L977.789,731.419L977.789,568.503C977.789,554.347 972.648,540.692 963.312,530.05L936.56,499.553C927.521,489.247 922.542,476.022 922.542,462.314L922.542,246.308C922.542,205.222 955.968,171.796 997.055,171.796C1038.14,171.796 1071.57,205.222 1071.57,246.308L1071.57,422.027C1071.57,437.172 1076.59,452.17 1085.72,464.256L1166.79,571.624C1175.68,583.392 1180.58,597.996 1180.58,612.743L1180.58,703.574C1180.58,726.877 1168.88,748.322 1149.29,760.941L1125.8,776.071C1105.68,789.029 1093.66,811.053 1093.66,834.986L1093.66,917.324C1093.66,961.897 1057.4,998.159 1012.83,998.159C968.257,998.159 931.996,961.897 931.996,917.324L931.996,891.61C931.996,872.398 920.445,855.433 902.568,848.391L863.032,832.816C845.865,826.053 834.773,809.761 834.773,791.31L834.773,636.835C834.773,626.088 831.009,615.601 824.177,607.305L783.078,557.398C776.517,549.43 772.904,539.359 772.904,529.038L772.904,322.204C772.904,297.734 752.997,277.827 728.527,277.827C704.058,277.827 684.152,297.734 684.152,322.204L684.152,526.99C684.152,555.257 671.917,582.107 650.587,600.655C628.855,619.553 616.39,646.909 616.39,675.71L616.39,884.179L618.232,884.179L618.232,881.793L618.232,675.71C618.232,647.443 630.464,620.593 651.795,602.045C673.529,583.147 685.993,555.79 685.993,526.99L685.993,322.204C685.993,298.75 705.074,279.669 728.527,279.669C751.982,279.669 771.062,298.75 771.062,322.204L771.062,529.038C771.062,539.785 774.825,550.272 781.656,558.568L822.756,608.476C829.318,616.443 832.931,626.514 832.931,636.835L832.931,791.31C832.931,810.523 844.482,827.487 862.357,834.529L901.894,850.104C919.061,856.867 930.154,873.159 930.154,891.61L930.154,917.324C930.154,962.912 967.242,1000 1012.83,1000C1058.42,1000 1095.51,962.912 1095.51,917.324L1095.51,834.986C1095.51,811.683 1107.2,790.237 1126.79,777.619L1150.28,762.489C1170.4,749.53 1182.42,727.505 1182.42,703.574L1182.42,612.743C1182.42,597.598 1177.39,582.6 1168.26,570.514L1087.19,463.146C1078.3,451.378 1073.41,436.775 1073.41,422.027L1073.41,246.308C1073.41,204.206 1039.16,169.954 997.055,169.954Z" style="fill-rule:nonzero;"/>
        <path d="M1068.73,695.168L1068.73,611.208C1068.73,600.902 1077.11,592.519 1087.42,592.519C1097.72,592.519 1106.1,600.902 1106.1,611.208L1106.1,695.168C1106.1,705.473 1097.72,713.857 1087.42,713.857C1077.11,713.857 1068.73,705.473 1068.73,695.168ZM1107.95,695.168L1107.95,611.208C1107.95,599.887 1098.74,590.677 1087.42,590.677C1076.1,590.677 1066.89,599.887 1066.89,611.208L1066.89,695.168C1066.89,706.488 1076.1,715.698 1087.42,715.698C1098.74,715.698 1107.95,706.488 1107.95,695.168Z" style="fill-rule:nonzero;"/>
        <path d="M647.832,15.919C657.105,23.634 662.423,34.977 662.423,47.04C662.423,59.956 656.183,72.2 645.734,79.792L538.457,157.73C527.531,165.667 521.008,178.468 521.008,191.972L521.008,467.338L522.849,467.338L522.849,191.972C522.849,179.055 529.088,166.812 539.539,159.219L646.816,81.281C657.742,73.344 664.264,60.544 664.264,47.039C664.264,34.428 658.705,22.569 649.009,14.504L632.823,1.035C632.419,0.7 632.035,0.349 631.646,0.001L628.965,0.001C629.823,0.847 630.708,1.672 631.644,2.451L647.832,15.919Z" style="fill-rule:nonzero;"/>
        <path d="M572.117,66.971L487.218,135.577C479.47,141.839 469.714,145.288 459.751,145.288C435.656,145.288 416.052,125.684 416.052,101.589L416.052,79.58C416.052,61.319 409.981,43.246 398.957,28.689L377.231,0.001L374.921,0.001L397.49,29.801C408.273,44.04 414.21,61.718 414.21,79.58L414.21,101.589C414.21,126.7 434.64,147.13 459.751,147.13C470.134,147.13 480.3,143.535 488.375,137.009L573.274,68.403C586.164,57.986 593.556,42.507 593.556,25.934L593.556,0.001L591.715,0.001L591.715,25.934C591.715,41.948 584.572,56.906 572.117,66.971Z" style="fill-rule:nonzero;"/>
        <path d="M783.953,1.738L783.951,14.646C783.951,25.212 788.703,35.035 796.99,41.595L818.753,58.823C826.597,65.031 831.094,74.328 831.094,84.33L831.094,493.682C831.094,504.428 834.857,514.916 841.689,523.212L882.789,573.119C889.349,581.086 892.962,591.157 892.962,601.479L892.962,755.953C892.962,775.166 904.513,792.131 922.39,799.173L961.926,814.748C979.093,821.51 990.185,837.803 990.184,856.254L990.18,918.078C990.18,921.76 991.615,925.223 994.218,927.827C996.823,930.431 1000.28,931.865 1003.97,931.865L1004.3,931.865C1008.12,931.865 1011.7,930.391 1014.39,927.714C1017.07,925.038 1018.55,921.476 1018.55,917.684C1018.55,890.139 1018.54,826.85 1018.54,797.422C1018.54,787.415 1021.45,777.705 1026.96,769.343L1035.37,756.559C1041.07,747.896 1044.08,737.836 1044.08,727.465L1044.08,614.839C1044.08,613.783 1044.11,611.411 1044.15,608.081C1044.35,591.915 1044.81,554.058 1043.64,533.237C1043.18,525.026 1039.98,517.065 1034.64,510.843L1013.68,484.776C1005.21,472.351 1004.28,463.759 1004.28,448.408L1004.28,286.211L1002.44,286.211L1002.44,448.408C1002.44,462.813 1003.1,472.518 1012.2,485.872L1033.22,512.021C1038.32,517.959 1041.37,525.53 1041.81,533.34C1042.97,554.098 1042.51,591.912 1042.31,608.059C1042.27,611.4 1042.24,613.779 1042.24,614.839L1042.24,727.465C1042.24,737.474 1039.33,747.185 1033.83,755.547L1025.42,768.331C1019.72,776.995 1016.7,787.054 1016.7,797.422C1016.7,826.85 1016.7,890.139 1016.71,917.684C1016.71,920.983 1015.42,924.082 1013.09,926.409C1010.75,928.74 1007.63,930.024 1004.3,930.024L1003.97,930.024C1000.78,930.024 997.777,928.782 995.521,926.525C993.265,924.269 992.022,921.269 992.022,918.078L992.025,856.254C992.026,837.041 980.476,820.076 962.601,813.034L923.064,797.46C905.897,790.697 894.804,774.405 894.804,755.953L894.804,601.479C894.804,590.731 891.042,580.244 884.21,571.949L843.111,522.041C836.549,514.074 832.935,504.003 832.935,493.682L832.935,84.33C832.935,73.762 828.183,63.939 819.897,57.379L798.132,40.151C790.289,33.943 785.792,24.647 785.792,14.646L785.793,1.738C785.793,1.154 785.757,0.576 785.708,0.001L783.868,0.001C783.921,0.575 783.953,1.154 783.953,1.738Z" style="fill-rule:nonzero;"/>
        <path d="M360.189,640.776L320.126,617.644C300.961,606.578 289.055,585.955 289.055,563.824L289.055,555.714C289.055,541.372 277.386,529.703 263.044,529.703L191.685,529.703C177.342,529.703 165.673,541.372 165.673,555.714C165.673,572.358 179.214,585.898 195.857,585.898L206.669,585.898C235.007,585.898 262.111,597.999 281.03,619.099L311.332,652.896C333.542,677.669 345.775,709.635 345.775,742.907L345.775,870.537C345.775,889.063 351.449,906.836 362.183,921.935L417.682,1000L419.941,1000L363.683,920.868C353.171,906.083 347.616,888.678 347.616,870.537L347.616,742.907C347.616,709.181 335.216,676.777 312.703,651.667L282.401,617.87C263.133,596.381 235.531,584.056 206.669,584.056L195.857,584.056C180.23,584.056 167.515,571.342 167.515,555.714C167.515,542.387 178.357,531.545 191.685,531.545L263.044,531.545C276.372,531.545 287.214,542.387 287.214,555.714L287.214,563.824C287.214,586.611 299.472,607.844 319.206,619.238L359.269,642.371C371.391,649.371 378.921,662.416 378.921,676.414L378.921,863.339C378.921,885.706 397.117,903.901 419.483,903.901C443.42,903.901 462.894,923.376 462.894,947.313L462.894,977.786C462.894,986.586 466.707,994.511 472.765,1000L475.635,1000C469.01,994.848 464.736,986.809 464.736,977.786L464.736,947.313C464.736,922.36 444.436,902.06 419.483,902.06C398.132,902.06 380.763,884.69 380.763,863.339L380.763,676.414C380.763,661.76 372.88,648.105 360.189,640.776Z" style="fill-rule:nonzero;"/>
        <path d="M539.064,561.357C527.42,573.259 521.008,588.984 521.008,605.634L521.008,977.786C521.008,986.809 516.734,994.848 510.109,1000L512.979,1000C519.038,994.511 522.849,986.586 522.849,977.786L522.849,605.634C522.849,589.468 529.076,574.2 540.38,562.645L578.279,523.903L576.963,522.615L539.064,561.357Z" style="fill-rule:nonzero;"/>
        <path d="M646.109,216.246C627.96,228.325 617.126,248.55 617.126,270.35L617.126,484.271C617.126,512.539 604.893,539.388 583.562,557.936C561.83,576.835 549.366,604.191 549.366,632.991L549.366,1000L551.207,1000L551.207,632.991C551.207,604.724 563.441,577.874 584.771,559.326C606.503,540.427 618.968,513.071 618.968,484.271L618.968,270.35C618.968,249.168 629.496,229.515 647.128,217.779L702.616,180.846C714.113,172.054 720.977,158.164 720.977,143.69L720.977,97.714C720.977,88.531 724.354,79.711 730.488,72.878L736.775,65.872C743.583,58.284 746.755,48.641 746.753,35.527L746.749,1.157C746.749,0.769 746.781,0.385 746.804,0.001L744.963,0.001C744.941,0.386 744.908,0.769 744.908,1.158L744.912,35.527C744.914,48.16 741.893,57.412 735.404,64.642L729.117,71.648C722.681,78.819 719.136,88.077 719.136,97.714L719.136,143.69C719.136,157.594 712.542,170.937 701.546,179.348L646.109,216.246Z" style="fill-rule:nonzero;"/>
        <path d="M0,135.716L0,139.342C8.235,153.866 12.706,170.42 12.706,187.494L12.706,475.237C12.706,486.851 17.961,497.605 27.122,504.742L46.505,519.844C55.216,526.629 60.212,536.854 60.212,547.895L60.212,553.823L62.053,553.823L62.053,551.572L62.053,547.895C62.053,536.282 56.798,525.528 47.638,518.39L28.254,503.29C19.544,496.504 14.548,486.279 14.548,475.237L14.548,187.494C14.548,169.025 9.413,151.152 0,135.716Z" style="fill-rule:nonzero;"/>
        <path d="M111.915,56.546C118.475,64.513 122.089,74.585 122.089,84.905L122.089,239.38C122.089,258.592 133.638,275.557 151.525,282.603L180.234,293.511L180.888,291.79L152.189,280.886C135.023,274.123 123.93,257.831 123.93,239.38L123.93,84.905C123.93,74.159 120.167,63.671 113.335,55.376L72.235,5.468C70.812,3.74 69.536,1.908 68.397,0.001L66.257,0.001C67.575,2.331 69.097,4.554 70.814,6.639L111.915,56.546Z" style="fill-rule:nonzero;"/>
        <path d="M207.315,22.34C212.994,29.13 216.121,37.743 216.121,46.595L216.121,230.809C216.121,249.525 200.895,264.751 182.179,264.751C163.464,264.751 148.238,249.525 148.238,230.809L148.238,71.647C148.238,60.899 144.475,50.412 137.644,42.116L102.96,0.001L100.575,0.001L136.222,43.287C142.784,51.254 146.396,61.325 146.396,71.647L146.396,230.809C146.396,250.54 162.449,266.592 182.179,266.592C201.911,266.592 217.962,250.54 217.962,230.809L217.962,46.595C217.962,37.313 214.683,28.279 208.728,21.159L191.032,0.001L188.63,0.001L207.315,22.34Z" style="fill-rule:nonzero;"/>
        <path d="M10.498,0.001L10.498,6.942C10.498,17.688 14.261,28.175 21.093,36.471L62.192,86.379C68.755,94.346 72.367,104.417 72.367,114.737L72.367,269.212C72.367,288.425 83.917,305.39 101.793,312.432L141.331,328.007C158.498,334.77 169.59,351.062 169.59,369.513L169.59,415.324C169.59,437.495 187.627,455.532 209.797,455.532C231.967,455.532 250.004,437.495 250.004,415.324L250.004,313.4C250.004,290.056 261.733,268.589 281.376,255.978L307.283,239.347C327.458,226.395 339.503,204.35 339.503,180.376L339.503,122.558C339.503,107.053 334.261,91.774 324.742,79.535L262.88,0.001L260.548,0.001L323.289,80.665C332.557,92.583 337.662,107.46 337.662,122.558L337.662,180.376C337.662,203.72 325.933,225.186 306.289,237.797L280.382,254.428C260.208,267.38 248.164,289.426 248.164,313.4L248.164,415.324C248.164,436.479 230.953,453.69 209.797,453.69C188.642,453.69 171.431,436.479 171.431,415.324L171.431,369.513C171.431,350.3 159.881,333.336 142.005,326.294L102.468,310.719C85.301,303.956 74.208,287.663 74.208,269.212L74.208,114.737C74.208,103.991 70.446,93.504 63.614,85.208L22.514,35.3C15.952,27.333 12.339,17.262 12.339,6.942L12.339,0.001L10.498,0.001Z" style="fill-rule:nonzero;"/>
        <path d="M164.536,31.265C173.576,41.57 178.554,54.795 178.554,68.504L178.554,231.419L180.396,231.419L180.396,68.504C180.396,54.348 175.255,40.692 165.919,30.05L139.56,0.001L137.141,0.001C137.357,0.255 137.564,0.516 137.784,0.768L164.536,31.265Z" style="fill-rule:nonzero;"/>
        <path d="M26.784,107.305L0,74.78L0,77.677L25.363,108.476C31.925,116.443 35.538,126.514 35.538,136.835L35.538,291.31C35.538,310.523 47.089,327.487 64.964,334.529L104.501,350.104C121.668,356.867 132.761,373.159 132.761,391.61L132.761,417.324C132.761,462.912 169.849,500 215.437,500C261.025,500 298.113,462.912 298.113,417.324L298.113,334.985C298.113,311.682 309.809,290.237 329.401,277.619L352.892,262.489C373.012,249.53 385.024,227.505 385.024,203.574L385.024,112.743C385.024,97.598 379.998,82.601 370.872,70.515L317.626,0.001L315.319,0.001L369.402,71.624C378.289,83.393 383.183,97.996 383.183,112.743L383.183,203.574C383.183,226.877 371.487,248.323 351.895,260.941L328.404,276.07C308.284,289.029 296.272,311.054 296.272,334.985L296.272,417.324C296.272,461.897 260.009,498.159 215.437,498.159C170.865,498.159 134.603,461.897 134.603,417.324L134.603,391.61C134.603,372.398 123.052,355.433 105.175,348.391L65.64,332.816C48.472,326.053 37.38,309.761 37.38,291.31L37.38,136.835C37.38,126.088 33.617,115.601 26.784,107.305Z" style="fill-rule:nonzero;"/>
        <path d="M271.335,195.168L271.335,111.208C271.335,100.903 279.719,92.52 290.025,92.52C300.33,92.52 308.712,100.903 308.712,111.208L308.712,195.168C308.712,205.473 300.33,213.857 290.025,213.857C279.719,213.857 271.335,205.473 271.335,195.168ZM310.554,195.168L310.554,111.208C310.554,99.888 301.345,90.678 290.025,90.678C278.704,90.678 269.494,99.888 269.494,111.208L269.494,195.168C269.494,206.488 278.704,215.698 290.025,215.698C301.345,215.698 310.554,206.488 310.554,195.168Z" style="fill-rule:nonzero;"/>
        <path d="M44.296,23.212L85.396,73.12C91.956,81.087 95.57,91.158 95.57,101.479L95.57,255.953C95.57,275.166 107.122,292.13 124.998,299.173L164.534,314.748C181.701,321.511 192.792,337.803 192.792,356.254L192.789,418.078C192.789,425.68 198.973,431.865 206.576,431.865L206.908,431.865C210.724,431.865 214.306,430.391 216.994,427.714C219.677,425.038 221.156,421.476 221.156,417.684C221.154,390.139 221.152,326.85 221.152,297.422C221.152,287.415 224.06,277.705 229.563,269.343L237.976,256.559C243.677,247.896 246.691,237.835 246.691,227.465L246.691,114.839C246.691,113.783 246.719,111.411 246.76,108.081C246.958,91.916 247.42,54.059 246.251,33.237C245.791,25.026 242.585,17.065 237.246,10.844L228.527,0.001L226.167,0.001L235.83,12.021C240.927,17.959 243.975,25.531 244.414,33.341C245.578,54.099 245.116,91.912 244.918,108.059C244.877,111.4 244.849,113.779 244.849,114.839L244.849,227.465C244.849,237.474 241.94,247.185 236.439,255.547L228.025,268.331C222.324,276.994 219.311,287.054 219.311,297.422C219.311,326.85 219.312,390.139 219.314,417.684C219.314,420.983 218.029,424.082 215.693,426.409C213.353,428.74 210.234,430.024 206.908,430.024L206.576,430.024C199.988,430.024 194.629,424.665 194.629,418.078L194.632,356.254C194.634,337.041 183.083,320.077 165.208,313.035L125.671,297.46C108.504,290.697 97.411,274.405 97.411,255.953L97.411,101.479C97.411,90.732 93.649,80.244 86.817,71.949L45.718,22.042C40.505,15.713 37.162,8.055 36.003,0.001L34.142,0.001C35.312,8.483 38.813,16.554 44.296,23.212Z" style="fill-rule:nonzero;"/>
        <path d="M824.515,4.743L843.898,19.843C852.609,26.629 857.605,36.855 857.605,47.896L857.605,53.823L859.446,53.823L859.446,51.572L859.446,47.896C859.446,36.282 854.191,25.528 845.03,18.391L825.647,3.29C824.339,2.271 823.125,1.166 821.99,0.001L819.469,0.001C820.988,1.711 822.667,3.304 824.515,4.743Z" style="fill-rule:nonzero;"/>
        <path d="M701.99,39.04L701.99,54.961C701.99,72.686 694.445,88.585 681.808,97.492C680.255,98.587 677.931,100.227 675.007,102.292C652.691,118.05 593.414,159.91 577.64,170.058C560.216,181.268 556.645,195.778 556.645,214.116L556.645,228.835L558.487,228.835L558.487,228.154L558.487,214.116C558.487,189.594 566.542,179.387 578.637,171.606C594.444,161.437 653.745,119.561 676.069,103.796C678.993,101.732 681.316,100.091 682.869,98.997C695.995,89.746 703.832,73.284 703.832,54.961L703.832,39.04C703.832,24.46 698.135,10.453 688.251,0.001L685.648,0.001C695.98,10.234 701.99,24.329 701.99,39.04Z" style="fill-rule:nonzero;"/>
        <path d="M433.429,22.151C441.863,34.014 446.322,47.977 446.322,62.532L446.322,85.098C446.322,98.506 457.23,109.415 470.639,109.415C476.433,109.415 482.048,107.339 486.451,103.572L521.916,73.219C540.531,57.287 551.207,34.096 551.207,9.593L551.207,0.001L549.366,0.001L549.366,9.593C549.366,33.557 538.923,56.238 520.718,71.82L485.253,102.173C481.185,105.655 475.995,107.573 470.639,107.573C458.246,107.573 448.163,97.491 448.163,85.098L448.163,62.532C448.163,47.593 443.586,33.26 434.93,21.084L419.941,0.001L417.682,0.001L433.429,22.151Z" style="fill-rule:nonzero;"/>
        <path d="M492.873,7.763C500.602,7.763 507.657,4.822 512.979,0.001L510.109,0.001C505.343,3.707 499.363,5.922 492.873,5.922C486.381,5.922 480.402,3.707 475.636,0.001L472.766,0.001C478.087,4.822 485.143,7.763 492.873,7.763Z" style="fill-rule:nonzero;"/>
    </g>
</svg>
